<svg id="visual" viewBox="0 0 900 600" width="900" height="600" xmlns="http://www.w3.org/2000/svg" xmlns:xlink="http://www.w3.org/1999/xlink" version="1.1"><rect x="0" y="0" width="900" height="600" fill="#00dd2f"></rect><path d="M0 509L21.5 495.7C43 482.3 86 455.7 128.8 453.5C171.7 451.3 214.3 473.7 257.2 471.7C300 469.7 343 443.3 385.8 431C428.7 418.7 471.3 420.3 514.2 421.5C557 422.7 600 423.3 642.8 415.8C685.7 408.3 728.3 392.7 771.2 403C814 413.3 857 449.7 878.5 467.8L900 486L900 601L878.5 601C857 601 814 601 771.2 601C728.3 601 685.7 601 642.8 601C600 601 557 601 514.2 601C471.3 601 428.7 601 385.8 601C343 601 300 601 257.2 601C214.3 601 171.7 601 128.8 601C86 601 43 601 21.5 601L0 601Z" fill="#ffffff" stroke-linecap="round" stroke-linejoin="miter"></path></svg>